<svg height="512pt" viewBox="0 0 512 512" width="512pt" xmlns="http://www.w3.org/2000/svg"><path d="m121 392h120v60h-120zm0 0"/><path d="m331 392h60v120h-60zm0 0"/><path d="m481 332h-451v150h-30v30h301v-150h120v150h91v-30h-31zm-210 150h-180v-120h180zm0 0"/><path d="m61 211-61 91h512l-61-91zm0 0"/><path d="m61 181h390v-61h-143.40625c7.8125-8.664062 13.882812-18.792969 17.878906-30h20.527344c24.8125 0 45-20.1875 45-45s-20.1875-45-45-45h-195v60c0 23.132812 9.015625 44.039062 23.40625 60h-113.40625zm270-151h15c8.277344 0 15 6.722656 15 15s-6.722656 15-15 15h-15zm0 0"/></svg>